<svg xmlns="http://www.w3.org/2000/svg" width="38" height="38" fill="none" viewBox="0 0 38 38">
  <path stroke="#415A77" stroke-width="2" d="M1 35.8V2.2A1.2 1.2 0 0 1 2.2 1h33.6A1.2 1.2 0 0 1 37 2.2v33.6a1.2 1.2 0 0 1-1.2 1.2H2.2A1.2 1.2 0 0 1 1 35.8Z"/>
  <path stroke="#415A77" stroke-linecap="round" stroke-linejoin="round" stroke-width="2" d="M10 11a1 1 0 1 1 0-2 1 1 0 0 1 0 2Zm18 0a1 1 0 1 1 0-2 1 1 0 0 1 0 2Zm-18 9a1 1 0 1 1 0-2 1 1 0 0 1 0 2Zm18 0a1 1 0 1 1 0-2 1 1 0 0 1 0 2Zm-18 9a1 1 0 1 1 0-2 1 1 0 0 1 0 2Zm18 0a1 1 0 1 1 0-2 1 1 0 0 1 0 2Z"/>
</svg>
