<svg xmlns="http://www.w3.org/2000/svg" width="49" height="38" fill="none" viewBox="0 0 49 38">
  <path stroke="#415A77" stroke-linecap="round" stroke-width="2" d="M1 37v-2.118C1 26.696 7.637 20.06 15.823 20.06c8.187 0 14.824 6.636 14.824 14.823V37"/>
  <path stroke="#415A77" stroke-linecap="round" stroke-width="2" d="M26.412 24.294c0-5.848 4.74-10.588 10.588-10.588 5.848 0 10.588 4.74 10.588 10.588v1.059"/>
  <path stroke="#415A77" stroke-linecap="round" stroke-linejoin="round" stroke-width="2" d="M15.823 20.059a8.47 8.47 0 1 0 0-16.942 8.47 8.47 0 0 0 0 16.942ZM37 13.706A6.353 6.353 0 1 0 37 1a6.353 6.353 0 0 0 0 12.706Z"/>
</svg>
